<mxfile host="65bd71144e">
    <diagram id="iNdDuhvuaRt5KLXfw1j7" name="Page-1">
        <mxGraphModel dx="2202" dy="1562" grid="1" gridSize="10" guides="1" tooltips="1" connect="1" arrows="1" fold="1" page="0" pageScale="1" pageWidth="1100" pageHeight="850" background="#FFFFFF" math="0" shadow="0">
            <root>
                <mxCell id="0"/>
                <mxCell id="1" parent="0"/>
                <mxCell id="159" value="&lt;pre&gt;&lt;div&gt;&lt;br&gt;&lt;/div&gt;&lt;/pre&gt;" style="rounded=1;whiteSpace=wrap;html=1;strokeWidth=2;arcSize=8;shadow=0;align=left;verticalAlign=top;fillColor=#f5f5f5;fontColor=#333333;strokeColor=#666666;" parent="1" vertex="1">
                    <mxGeometry x="700" y="180" width="380" height="571" as="geometry"/>
                </mxCell>
                <mxCell id="251" value="&lt;pre&gt;&lt;div&gt;&lt;br&gt;&lt;/div&gt;&lt;/pre&gt;" style="rounded=1;whiteSpace=wrap;html=1;strokeWidth=2;arcSize=3;shadow=0;align=left;verticalAlign=top;fillColor=#f5f5f5;strokeColor=#666666;fontColor=#333333;" parent="1" vertex="1">
                    <mxGeometry y="180" width="670" height="570" as="geometry"/>
                </mxCell>
                <mxCell id="245" style="edgeStyle=none;html=1;strokeColor=#4D9900;strokeWidth=2;fontSize=16;fontColor=#26212C;" parent="1" source="244" edge="1">
                    <mxGeometry relative="1" as="geometry">
                        <mxPoint x="360" y="700" as="targetPoint"/>
                        <Array as="points">
                            <mxPoint x="945" y="730"/>
                            <mxPoint x="360" y="730"/>
                        </Array>
                    </mxGeometry>
                </mxCell>
                <mxCell id="80" value="" style="rounded=1;whiteSpace=wrap;html=1;strokeWidth=2;arcSize=3;shadow=0;" parent="1" vertex="1">
                    <mxGeometry x="277" y="659" width="40" height="40" as="geometry"/>
                </mxCell>
                <mxCell id="92" value="" style="rounded=1;whiteSpace=wrap;html=1;strokeWidth=2;arcSize=3;shadow=0;fillColor=#e1d5e7;strokeColor=#9673a6;" parent="1" vertex="1">
                    <mxGeometry x="20" y="222" width="180" height="438" as="geometry"/>
                </mxCell>
                <mxCell id="186" style="edgeStyle=none;html=1;entryX=0.5;entryY=0;entryDx=0;entryDy=0;strokeColor=#FF3333;strokeWidth=2;fontSize=16;fontColor=#0000FF;" parent="1" target="182" edge="1">
                    <mxGeometry relative="1" as="geometry">
                        <mxPoint x="440" y="90" as="sourcePoint"/>
                    </mxGeometry>
                </mxCell>
                <mxCell id="187" value="&lt;b&gt;Send Packet Call&lt;/b&gt;&lt;br&gt;&lt;i&gt;Blocking or Non Blocking&lt;/i&gt;" style="edgeLabel;html=1;align=left;verticalAlign=middle;resizable=0;points=[];fontSize=16;fontColor=#FF3333;" parent="186" vertex="1" connectable="0">
                    <mxGeometry x="0.3535" y="1" relative="1" as="geometry">
                        <mxPoint x="16" y="-47" as="offset"/>
                    </mxGeometry>
                </mxCell>
                <mxCell id="269" style="edgeStyle=none;html=1;entryX=1;entryY=0.5;entryDx=0;entryDy=0;strokeColor=#9933FF;strokeWidth=2;fontSize=16;fontColor=#9933FF;exitX=1;exitY=0.25;exitDx=0;exitDy=0;" parent="1" source="12" target="271" edge="1">
                    <mxGeometry relative="1" as="geometry">
                        <Array as="points">
                            <mxPoint x="1260" y="30"/>
                            <mxPoint x="1260" y="466"/>
                        </Array>
                    </mxGeometry>
                </mxCell>
                <mxCell id="12" value="" style="rounded=1;whiteSpace=wrap;html=1;strokeWidth=2;shadow=0;fillColor=#f5f5f5;strokeColor=#666666;fontColor=#333333;" parent="1" vertex="1">
                    <mxGeometry y="9" width="1080" height="81" as="geometry"/>
                </mxCell>
                <mxCell id="3" value="&lt;span style=&quot;&quot;&gt;APP&lt;br&gt;1&lt;/span&gt;" style="rounded=1;whiteSpace=wrap;html=1;labelBackgroundColor=none;shadow=0;strokeWidth=2;fontColor=default;" parent="1" vertex="1">
                    <mxGeometry x="160" y="29.5" width="40" height="40" as="geometry"/>
                </mxCell>
                <mxCell id="4" value="APP&lt;br&gt;2" style="rounded=1;whiteSpace=wrap;html=1;labelBackgroundColor=none;shadow=0;strokeWidth=2;" parent="1" vertex="1">
                    <mxGeometry x="240" y="29.5" width="40" height="40" as="geometry"/>
                </mxCell>
                <mxCell id="5" value="APP&lt;br&gt;3" style="rounded=1;whiteSpace=wrap;html=1;labelBackgroundColor=none;shadow=0;strokeWidth=2;" parent="1" vertex="1">
                    <mxGeometry x="320" y="29.5" width="40" height="40" as="geometry"/>
                </mxCell>
                <mxCell id="6" value="APP&lt;br&gt;4" style="rounded=1;whiteSpace=wrap;html=1;labelBackgroundColor=none;shadow=0;strokeWidth=2;" parent="1" vertex="1">
                    <mxGeometry x="400" y="29.5" width="40" height="40" as="geometry"/>
                </mxCell>
                <mxCell id="7" value="APP&lt;br&gt;5" style="rounded=1;whiteSpace=wrap;html=1;labelBackgroundColor=none;shadow=0;strokeWidth=2;" parent="1" vertex="1">
                    <mxGeometry x="480" y="29.5" width="40" height="40" as="geometry"/>
                </mxCell>
                <mxCell id="8" value="APP&lt;br&gt;6" style="rounded=1;whiteSpace=wrap;html=1;labelBackgroundColor=none;shadow=0;strokeWidth=2;" parent="1" vertex="1">
                    <mxGeometry x="560" y="29.5" width="40" height="40" as="geometry"/>
                </mxCell>
                <mxCell id="9" value="APP&lt;br&gt;7" style="rounded=1;whiteSpace=wrap;html=1;labelBackgroundColor=none;shadow=0;strokeWidth=2;" parent="1" vertex="1">
                    <mxGeometry x="640" y="29.5" width="40" height="40" as="geometry"/>
                </mxCell>
                <mxCell id="10" value="APP&lt;br&gt;8" style="rounded=1;whiteSpace=wrap;html=1;labelBackgroundColor=none;shadow=0;strokeWidth=2;" parent="1" vertex="1">
                    <mxGeometry x="720" y="29.5" width="40" height="40" as="geometry"/>
                </mxCell>
                <mxCell id="11" value="APP&lt;br&gt;9" style="rounded=1;whiteSpace=wrap;html=1;labelBackgroundColor=none;shadow=0;strokeWidth=2;" parent="1" vertex="1">
                    <mxGeometry x="800" y="29.5" width="40" height="40" as="geometry"/>
                </mxCell>
                <mxCell id="27" value="" style="rounded=1;whiteSpace=wrap;html=1;strokeWidth=2;shadow=0;fillColor=#f5f5f5;strokeColor=#666666;fontColor=#333333;" parent="1" vertex="1">
                    <mxGeometry y="770" width="1080" height="80" as="geometry"/>
                </mxCell>
                <mxCell id="36" value="&lt;font color=&quot;#000000&quot;&gt;Packet Descriptor Store&lt;br&gt;&lt;/font&gt;" style="text;align=center;verticalAlign=middle;resizable=0;points=[];autosize=1;fontStyle=1;fontSize=23;rounded=1;shadow=0;glass=1;html=1;strokeWidth=2;" parent="1" vertex="1">
                    <mxGeometry x="700" y="140" width="290" height="40" as="geometry"/>
                </mxCell>
                <mxCell id="40" value="&lt;font color=&quot;#000000&quot;&gt;Packet Driver&lt;/font&gt;" style="text;align=center;verticalAlign=middle;resizable=0;points=[];autosize=1;fontStyle=1;fontSize=23;rounded=1;shadow=0;glass=1;html=1;strokeWidth=2;" parent="1" vertex="1">
                    <mxGeometry x="2" y="140" width="180" height="40" as="geometry"/>
                </mxCell>
                <mxCell id="41" value="&lt;font color=&quot;#000000&quot;&gt;Applications&lt;/font&gt;" style="text;align=center;verticalAlign=middle;resizable=0;points=[];autosize=1;fontStyle=1;fontSize=23;rounded=1;shadow=0;glass=1;html=1;strokeWidth=2;" parent="1" vertex="1">
                    <mxGeometry y="-31" width="170" height="40" as="geometry"/>
                </mxCell>
                <mxCell id="43" value="&lt;font color=&quot;#000000&quot;&gt;Network Device Driver&lt;/font&gt;" style="text;align=center;verticalAlign=middle;resizable=0;points=[];autosize=1;fontStyle=1;fontSize=23;rounded=1;shadow=0;glass=1;html=1;strokeWidth=2;" parent="1" vertex="1">
                    <mxGeometry x="400" y="790" width="280" height="40" as="geometry"/>
                </mxCell>
                <mxCell id="79" value="" style="rounded=1;whiteSpace=wrap;html=1;strokeWidth=2;arcSize=3;shadow=0;" parent="1" vertex="1">
                    <mxGeometry x="102" y="240" width="40" height="40" as="geometry"/>
                </mxCell>
                <mxCell id="81" value="&lt;font color=&quot;#000000&quot; style=&quot;font-size: 19px;&quot;&gt;PD Pool&lt;/font&gt;" style="text;align=center;verticalAlign=middle;resizable=0;points=[];autosize=1;fontStyle=1;fontSize=19;rounded=1;shadow=0;glass=1;html=1;strokeWidth=2;" parent="1" vertex="1">
                    <mxGeometry x="262" y="629" width="100" height="40" as="geometry"/>
                </mxCell>
                <mxCell id="83" value="&lt;span style=&quot;color: rgb(0, 0, 0); font-size: 19px;&quot;&gt;App Buffer&lt;/span&gt;" style="text;align=center;verticalAlign=middle;resizable=0;points=[];autosize=1;fontStyle=1;fontSize=23;rounded=1;shadow=0;glass=1;html=1;strokeWidth=2;" parent="1" vertex="1">
                    <mxGeometry x="20" y="189" width="120" height="40" as="geometry"/>
                </mxCell>
                <mxCell id="123" style="rounded=1;hachureGap=4;html=1;exitX=1;exitY=0.5;exitDx=0;exitDy=0;entryX=0;entryY=0.5;entryDx=0;entryDy=0;shadow=1;strokeWidth=2;fontFamily=Helvetica;fontSize=22;fontColor=#d80e0e;" parent="1" source="100" target="79" edge="1">
                    <mxGeometry relative="1" as="geometry"/>
                </mxCell>
                <mxCell id="100" value="APP&lt;br&gt;1" style="rounded=1;whiteSpace=wrap;html=1;labelBackgroundColor=none;shadow=0;strokeWidth=2;" parent="1" vertex="1">
                    <mxGeometry x="36" y="240" width="40" height="40" as="geometry"/>
                </mxCell>
                <mxCell id="122" style="edgeStyle=none;rounded=1;hachureGap=4;html=1;exitX=1;exitY=0.5;exitDx=0;exitDy=0;entryX=0;entryY=0.5;entryDx=0;entryDy=0;shadow=1;strokeWidth=2;fontFamily=Helvetica;fontSize=22;fontColor=#d80e0e;" parent="1" source="102" edge="1">
                    <mxGeometry relative="1" as="geometry">
                        <mxPoint x="102" y="300" as="targetPoint"/>
                    </mxGeometry>
                </mxCell>
                <mxCell id="102" value="APP&lt;br&gt;2" style="rounded=1;whiteSpace=wrap;html=1;labelBackgroundColor=none;shadow=0;strokeWidth=2;" parent="1" vertex="1">
                    <mxGeometry x="36" y="280" width="40" height="40" as="geometry"/>
                </mxCell>
                <mxCell id="121" style="edgeStyle=none;rounded=1;hachureGap=4;html=1;exitX=1;exitY=0.5;exitDx=0;exitDy=0;entryX=0;entryY=0.5;entryDx=0;entryDy=0;shadow=1;strokeWidth=2;fontFamily=Helvetica;fontSize=22;fontColor=#d80e0e;" parent="1" source="103" edge="1">
                    <mxGeometry relative="1" as="geometry">
                        <mxPoint x="102" y="340" as="targetPoint"/>
                    </mxGeometry>
                </mxCell>
                <mxCell id="103" value="APP&lt;br&gt;3" style="rounded=1;whiteSpace=wrap;html=1;labelBackgroundColor=none;shadow=0;strokeWidth=2;" parent="1" vertex="1">
                    <mxGeometry x="36" y="320" width="40" height="40" as="geometry"/>
                </mxCell>
                <mxCell id="120" style="edgeStyle=none;rounded=1;hachureGap=4;html=1;exitX=1;exitY=0.5;exitDx=0;exitDy=0;entryX=0;entryY=0.5;entryDx=0;entryDy=0;shadow=1;strokeWidth=2;fontFamily=Helvetica;fontSize=22;fontColor=#d80e0e;" parent="1" source="104" edge="1">
                    <mxGeometry relative="1" as="geometry">
                        <mxPoint x="102" y="380" as="targetPoint"/>
                    </mxGeometry>
                </mxCell>
                <mxCell id="104" value="APP&lt;br&gt;4" style="rounded=1;whiteSpace=wrap;html=1;labelBackgroundColor=none;shadow=0;strokeWidth=2;" parent="1" vertex="1">
                    <mxGeometry x="36" y="360" width="40" height="40" as="geometry"/>
                </mxCell>
                <mxCell id="119" style="edgeStyle=none;rounded=1;hachureGap=4;html=1;exitX=1;exitY=0.5;exitDx=0;exitDy=0;entryX=0;entryY=0.5;entryDx=0;entryDy=0;shadow=1;strokeWidth=2;fontFamily=Helvetica;fontSize=22;fontColor=#d80e0e;" parent="1" source="105" edge="1">
                    <mxGeometry relative="1" as="geometry">
                        <mxPoint x="102" y="420" as="targetPoint"/>
                    </mxGeometry>
                </mxCell>
                <mxCell id="105" value="APP&lt;br&gt;5" style="rounded=1;whiteSpace=wrap;html=1;labelBackgroundColor=none;shadow=0;strokeWidth=2;" parent="1" vertex="1">
                    <mxGeometry x="36" y="400" width="40" height="40" as="geometry"/>
                </mxCell>
                <mxCell id="118" style="edgeStyle=none;rounded=1;hachureGap=4;html=1;exitX=1;exitY=0.5;exitDx=0;exitDy=0;entryX=0;entryY=0.5;entryDx=0;entryDy=0;shadow=1;strokeWidth=2;fontFamily=Helvetica;fontSize=22;fontColor=#d80e0e;" parent="1" source="106" edge="1">
                    <mxGeometry relative="1" as="geometry">
                        <mxPoint x="102" y="460" as="targetPoint"/>
                    </mxGeometry>
                </mxCell>
                <mxCell id="106" value="APP&lt;br&gt;6" style="rounded=1;whiteSpace=wrap;html=1;labelBackgroundColor=none;shadow=0;strokeWidth=2;" parent="1" vertex="1">
                    <mxGeometry x="36" y="440" width="40" height="40" as="geometry"/>
                </mxCell>
                <mxCell id="117" style="edgeStyle=none;rounded=1;hachureGap=4;html=1;exitX=1;exitY=0.5;exitDx=0;exitDy=0;entryX=0;entryY=0.5;entryDx=0;entryDy=0;shadow=1;strokeWidth=2;fontFamily=Helvetica;fontSize=22;fontColor=#d80e0e;" parent="1" source="107" edge="1">
                    <mxGeometry relative="1" as="geometry">
                        <mxPoint x="102" y="500" as="targetPoint"/>
                    </mxGeometry>
                </mxCell>
                <mxCell id="107" value="APP&lt;br&gt;7" style="rounded=1;whiteSpace=wrap;html=1;labelBackgroundColor=none;shadow=0;strokeWidth=2;" parent="1" vertex="1">
                    <mxGeometry x="36" y="480" width="40" height="40" as="geometry"/>
                </mxCell>
                <mxCell id="126" style="edgeStyle=none;rounded=1;hachureGap=4;html=1;exitX=1;exitY=0.5;exitDx=0;exitDy=0;shadow=1;strokeWidth=2;fontFamily=Helvetica;fontSize=22;fontColor=#d80e0e;" parent="1" source="108" edge="1">
                    <mxGeometry relative="1" as="geometry">
                        <mxPoint x="102" y="540" as="targetPoint"/>
                    </mxGeometry>
                </mxCell>
                <mxCell id="108" value="APP&lt;br&gt;8" style="rounded=1;whiteSpace=wrap;html=1;labelBackgroundColor=none;shadow=0;strokeWidth=2;" parent="1" vertex="1">
                    <mxGeometry x="36" y="520" width="40" height="40" as="geometry"/>
                </mxCell>
                <mxCell id="127" style="edgeStyle=none;rounded=1;hachureGap=4;html=1;exitX=1;exitY=0.5;exitDx=0;exitDy=0;entryX=0;entryY=0.5;entryDx=0;entryDy=0;shadow=1;strokeWidth=2;fontFamily=Helvetica;fontSize=22;fontColor=#d80e0e;" parent="1" source="109" edge="1">
                    <mxGeometry relative="1" as="geometry">
                        <mxPoint x="102" y="580" as="targetPoint"/>
                    </mxGeometry>
                </mxCell>
                <mxCell id="109" value="APP&lt;br&gt;9" style="rounded=1;whiteSpace=wrap;html=1;labelBackgroundColor=none;shadow=0;strokeWidth=2;" parent="1" vertex="1">
                    <mxGeometry x="36" y="560" width="40" height="40" as="geometry"/>
                </mxCell>
                <mxCell id="110" value="&lt;font color=&quot;#d80e0e&quot;&gt;32 Total Packet Descriptors&lt;/font&gt;&lt;br&gt;&lt;font color=&quot;#4d9900&quot;&gt;5 written to PD Pool when Initialized&lt;/font&gt;" style="text;html=1;align=center;verticalAlign=middle;resizable=0;points=[];autosize=1;fontSize=19;fontFamily=Helvetica;hachureGap=4;fontStyle=1;strokeWidth=2;" parent="1" vertex="1">
                    <mxGeometry x="715" y="195" width="350" height="60" as="geometry"/>
                </mxCell>
                <mxCell id="113" value="" style="rounded=1;whiteSpace=wrap;html=1;strokeWidth=2;arcSize=20;shadow=0;fillColor=#fff2cc;strokeColor=#d6b656;" parent="1" vertex="1">
                    <mxGeometry x="220" y="220" width="40" height="40" as="geometry"/>
                </mxCell>
                <mxCell id="114" value="&lt;span style=&quot;color: rgb(0, 0, 0); font-size: 19px;&quot;&gt;Send Buffer&lt;/span&gt;" style="text;align=center;verticalAlign=middle;resizable=0;points=[];autosize=1;fontStyle=1;fontSize=23;rounded=1;shadow=0;glass=1;html=1;strokeWidth=2;" parent="1" vertex="1">
                    <mxGeometry x="210" y="186" width="130" height="40" as="geometry"/>
                </mxCell>
                <mxCell id="157" style="edgeStyle=none;html=1;strokeWidth=2;fontColor=default;strokeColor=#3333FF;" parent="1" edge="1">
                    <mxGeometry relative="1" as="geometry">
                        <mxPoint x="510" y="620" as="targetPoint"/>
                        <mxPoint x="420" y="680" as="sourcePoint"/>
                        <Array as="points">
                            <mxPoint x="510" y="680"/>
                        </Array>
                    </mxGeometry>
                </mxCell>
                <mxCell id="192" value="(1)" style="edgeLabel;html=1;align=center;verticalAlign=middle;resizable=0;points=[];fontSize=16;fontColor=#3333FF;" parent="157" vertex="1" connectable="0">
                    <mxGeometry x="-0.0533" y="-1" relative="1" as="geometry">
                        <mxPoint as="offset"/>
                    </mxGeometry>
                </mxCell>
                <mxCell id="176" style="edgeStyle=none;html=1;exitX=0;exitY=0.75;exitDx=0;exitDy=0;strokeColor=#3333FF;strokeWidth=2;fontSize=16;fontColor=#0000FF;entryX=0.5;entryY=1;entryDx=0;entryDy=0;" parent="1" source="128" target="92" edge="1">
                    <mxGeometry relative="1" as="geometry">
                        <mxPoint x="220" y="710" as="targetPoint"/>
                        <Array as="points">
                            <mxPoint x="220" y="700"/>
                            <mxPoint x="110" y="700"/>
                        </Array>
                    </mxGeometry>
                </mxCell>
                <mxCell id="195" value="(5)" style="edgeLabel;html=1;align=center;verticalAlign=middle;resizable=0;points=[];fontSize=16;fontColor=#3333FF;" parent="176" vertex="1" connectable="0">
                    <mxGeometry x="0.0131" y="1" relative="1" as="geometry">
                        <mxPoint x="-32" y="-1" as="offset"/>
                    </mxGeometry>
                </mxCell>
                <mxCell id="128" value="&lt;pre&gt;&lt;ol&gt;&lt;li&gt;Retrieve PD from pool (NON BLOCKING)&lt;/li&gt;&lt;li&gt;if fail, retrieve from free PD store (NON BLOCK)&lt;/li&gt;&lt;li&gt;Register on the Network Device&lt;/li&gt;&lt;li&gt;Wait for the network to populate the PD&lt;/li&gt;&lt;li&gt;Get pid from PD&lt;/li&gt;&lt;li&gt;NON BLOCKING write to APP buffer based on PID &lt;/li&gt;&lt;/ol&gt;&lt;/pre&gt;" style="rounded=1;whiteSpace=wrap;html=1;strokeWidth=2;arcSize=15;shadow=0;align=left;verticalAlign=top;strokeColor=#6c8ebf;spacingLeft=-5;fillColor=#dae8fc;" parent="1" vertex="1">
                    <mxGeometry x="220" y="462" width="380" height="160" as="geometry"/>
                </mxCell>
                <mxCell id="200" style="edgeStyle=none;html=1;exitX=1;exitY=0.5;exitDx=0;exitDy=0;strokeColor=#FF3333;strokeWidth=2;fontSize=16;fontColor=#FF3333;entryX=0.593;entryY=-0.012;entryDx=0;entryDy=0;entryPerimeter=0;" parent="1" source="129" target="27" edge="1">
                    <mxGeometry relative="1" as="geometry">
                        <mxPoint x="640" y="730" as="targetPoint"/>
                        <Array as="points">
                            <mxPoint x="640" y="360"/>
                            <mxPoint x="640" y="550"/>
                        </Array>
                    </mxGeometry>
                </mxCell>
                <mxCell id="201" value="(3)" style="edgeLabel;html=1;align=center;verticalAlign=middle;resizable=0;points=[];fontSize=16;fontColor=#FF3333;" parent="200" vertex="1" connectable="0">
                    <mxGeometry x="-0.603" y="-1" relative="1" as="geometry">
                        <mxPoint as="offset"/>
                    </mxGeometry>
                </mxCell>
                <mxCell id="202" style="edgeStyle=none;html=1;exitX=1;exitY=0.75;exitDx=0;exitDy=0;entryX=0.5;entryY=1;entryDx=0;entryDy=0;strokeColor=#FF3333;strokeWidth=2;fontSize=16;fontColor=#FF3333;" parent="1" source="129" target="152" edge="1">
                    <mxGeometry relative="1" as="geometry">
                        <Array as="points">
                            <mxPoint x="610" y="395"/>
                            <mxPoint x="610" y="720"/>
                            <mxPoint x="417" y="720"/>
                        </Array>
                    </mxGeometry>
                </mxCell>
                <mxCell id="207" value="(4)" style="edgeLabel;html=1;align=center;verticalAlign=middle;resizable=0;points=[];fontSize=16;fontColor=#FF3333;" parent="202" vertex="1" connectable="0">
                    <mxGeometry x="-0.1234" relative="1" as="geometry">
                        <mxPoint as="offset"/>
                    </mxGeometry>
                </mxCell>
                <mxCell id="205" style="edgeStyle=none;html=1;exitX=1;exitY=0.75;exitDx=0;exitDy=0;strokeColor=#FF3333;strokeWidth=2;fontSize=16;fontColor=#FF3333;entryX=0.003;entryY=0.681;entryDx=0;entryDy=0;entryPerimeter=0;" parent="1" source="129" target="159" edge="1">
                    <mxGeometry relative="1" as="geometry">
                        <mxPoint x="710" y="570" as="targetPoint"/>
                        <Array as="points">
                            <mxPoint x="610" y="395"/>
                            <mxPoint x="610" y="570"/>
                        </Array>
                    </mxGeometry>
                </mxCell>
                <mxCell id="208" value="(5)" style="edgeLabel;html=1;align=center;verticalAlign=middle;resizable=0;points=[];fontSize=16;fontColor=#FF3333;" parent="205" vertex="1" connectable="0">
                    <mxGeometry x="0.7226" relative="1" as="geometry">
                        <mxPoint as="offset"/>
                    </mxGeometry>
                </mxCell>
                <mxCell id="129" value="&lt;pre&gt;&lt;ol&gt;&lt;li&gt;Blocking Read on Send Buffer&lt;/li&gt;&lt;li&gt;Store in temp PD&lt;/li&gt;&lt;li&gt;Attempt to send packet through Network Driver&lt;/li&gt;&lt;li&gt;Attempt to return temp PD to pool (NON BLOCK) &lt;/li&gt;&lt;li&gt;If fail, return to free PD store (NON BLOCK)&lt;/li&gt;&lt;/ol&gt;&lt;/pre&gt;" style="rounded=1;html=1;strokeWidth=2;arcSize=12;shadow=0;align=left;verticalAlign=top;textDirection=ltr;horizontal=1;spacingLeft=-2;spacingRight=1;whiteSpace=wrap;strokeColor=#b85450;fillColor=#f8cecc;" parent="1" vertex="1">
                    <mxGeometry x="220" y="290" width="380" height="140" as="geometry"/>
                </mxCell>
                <mxCell id="130" value="&lt;span style=&quot;font-size: 19px;&quot;&gt;Receive Thread&lt;/span&gt;" style="text;align=center;verticalAlign=middle;resizable=0;points=[];autosize=1;fontStyle=1;fontSize=23;rounded=1;shadow=0;glass=1;html=1;strokeWidth=2;fontColor=#0000FF;" parent="1" vertex="1">
                    <mxGeometry x="220" y="427" width="170" height="40" as="geometry"/>
                </mxCell>
                <mxCell id="131" value="&lt;span style=&quot;font-size: 19px;&quot;&gt;Send Thread&lt;/span&gt;" style="text;align=center;verticalAlign=middle;resizable=0;points=[];autosize=1;fontStyle=1;fontSize=23;rounded=1;shadow=0;glass=1;html=1;strokeWidth=2;fontColor=#FF3333;" parent="1" vertex="1">
                    <mxGeometry x="220" y="255" width="140" height="40" as="geometry"/>
                </mxCell>
                <mxCell id="250" style="edgeStyle=none;html=1;entryX=0.219;entryY=1;entryDx=0;entryDy=0;entryPerimeter=0;strokeColor=#9933FF;strokeWidth=2;fontSize=16;fontColor=#4D9900;exitX=0.894;exitY=0.002;exitDx=0;exitDy=0;exitPerimeter=0;" parent="1" source="92" target="12" edge="1">
                    <mxGeometry relative="1" as="geometry">
                        <mxPoint x="180" y="190" as="sourcePoint"/>
                        <Array as="points">
                            <mxPoint x="180" y="160"/>
                            <mxPoint x="237" y="160"/>
                        </Array>
                    </mxGeometry>
                </mxCell>
                <mxCell id="257" value="&lt;b&gt;Get Packet Call&lt;br&gt;&lt;/b&gt;&lt;i&gt;Blocking or Non Blocking&lt;/i&gt;" style="edgeLabel;html=1;align=left;verticalAlign=middle;resizable=0;points=[];fontSize=16;fontColor=#9933FF;" parent="250" vertex="1" connectable="0">
                    <mxGeometry x="0.2898" y="-1" relative="1" as="geometry">
                        <mxPoint x="12" y="-28" as="offset"/>
                    </mxGeometry>
                </mxCell>
                <mxCell id="132" value="" style="rounded=1;whiteSpace=wrap;html=1;strokeWidth=2;arcSize=3;shadow=0;" parent="1" vertex="1">
                    <mxGeometry x="142" y="240" width="40" height="40" as="geometry"/>
                </mxCell>
                <mxCell id="133" value="" style="rounded=1;whiteSpace=wrap;html=1;strokeWidth=2;arcSize=3;shadow=0;" parent="1" vertex="1">
                    <mxGeometry x="102" y="280" width="40" height="40" as="geometry"/>
                </mxCell>
                <mxCell id="134" value="" style="rounded=1;whiteSpace=wrap;html=1;strokeWidth=2;arcSize=3;shadow=0;" parent="1" vertex="1">
                    <mxGeometry x="142" y="280" width="40" height="40" as="geometry"/>
                </mxCell>
                <mxCell id="135" value="" style="rounded=1;whiteSpace=wrap;html=1;strokeWidth=2;arcSize=3;shadow=0;" parent="1" vertex="1">
                    <mxGeometry x="102" y="320" width="40" height="40" as="geometry"/>
                </mxCell>
                <mxCell id="136" value="" style="rounded=1;whiteSpace=wrap;html=1;strokeWidth=2;arcSize=3;shadow=0;" parent="1" vertex="1">
                    <mxGeometry x="142" y="320" width="40" height="40" as="geometry"/>
                </mxCell>
                <mxCell id="137" value="" style="rounded=1;whiteSpace=wrap;html=1;strokeWidth=2;arcSize=3;shadow=0;" parent="1" vertex="1">
                    <mxGeometry x="102" y="360" width="40" height="40" as="geometry"/>
                </mxCell>
                <mxCell id="138" value="" style="rounded=1;whiteSpace=wrap;html=1;strokeWidth=2;arcSize=3;shadow=0;" parent="1" vertex="1">
                    <mxGeometry x="142" y="360" width="40" height="40" as="geometry"/>
                </mxCell>
                <mxCell id="139" value="" style="rounded=1;whiteSpace=wrap;html=1;strokeWidth=2;arcSize=3;shadow=0;" parent="1" vertex="1">
                    <mxGeometry x="102" y="400" width="40" height="40" as="geometry"/>
                </mxCell>
                <mxCell id="140" value="" style="rounded=1;whiteSpace=wrap;html=1;strokeWidth=2;arcSize=3;shadow=0;" parent="1" vertex="1">
                    <mxGeometry x="142" y="400" width="40" height="40" as="geometry"/>
                </mxCell>
                <mxCell id="141" value="" style="rounded=1;whiteSpace=wrap;html=1;strokeWidth=2;arcSize=3;shadow=0;" parent="1" vertex="1">
                    <mxGeometry x="102" y="440" width="40" height="40" as="geometry"/>
                </mxCell>
                <mxCell id="142" value="" style="rounded=1;whiteSpace=wrap;html=1;strokeWidth=2;arcSize=3;shadow=0;" parent="1" vertex="1">
                    <mxGeometry x="142" y="440" width="40" height="40" as="geometry"/>
                </mxCell>
                <mxCell id="143" value="" style="rounded=1;whiteSpace=wrap;html=1;strokeWidth=2;arcSize=3;shadow=0;" parent="1" vertex="1">
                    <mxGeometry x="102" y="520" width="40" height="40" as="geometry"/>
                </mxCell>
                <mxCell id="144" value="" style="rounded=1;whiteSpace=wrap;html=1;strokeWidth=2;arcSize=3;shadow=0;" parent="1" vertex="1">
                    <mxGeometry x="142" y="520" width="40" height="40" as="geometry"/>
                </mxCell>
                <mxCell id="145" value="" style="rounded=1;whiteSpace=wrap;html=1;strokeWidth=2;arcSize=3;shadow=0;" parent="1" vertex="1">
                    <mxGeometry x="102" y="480" width="40" height="40" as="geometry"/>
                </mxCell>
                <mxCell id="146" value="" style="rounded=1;whiteSpace=wrap;html=1;strokeWidth=2;arcSize=3;shadow=0;" parent="1" vertex="1">
                    <mxGeometry x="142" y="480" width="40" height="40" as="geometry"/>
                </mxCell>
                <mxCell id="147" value="" style="rounded=1;whiteSpace=wrap;html=1;strokeWidth=2;arcSize=3;shadow=0;" parent="1" vertex="1">
                    <mxGeometry x="102" y="560" width="40" height="40" as="geometry"/>
                </mxCell>
                <mxCell id="148" value="" style="rounded=1;whiteSpace=wrap;html=1;strokeWidth=2;arcSize=3;shadow=0;" parent="1" vertex="1">
                    <mxGeometry x="142" y="560" width="40" height="40" as="geometry"/>
                </mxCell>
                <mxCell id="149" value="" style="html=1;whiteSpace=wrap;shape=isoCube2;backgroundOutline=1;isoAngle=20.90909090909091;labelBackgroundColor=#FFFFFF;hachureGap=4;fontFamily=Architects Daughter;fontSource=https%3A%2F%2Ffonts.googleapis.com%2Fcss%3Ffamily%3DArchitects%2BDaughter;fontSize=20;rounded=1;shadow=0;strokeWidth=2;" parent="1" vertex="1">
                    <mxGeometry x="282" y="665.25" width="30" height="27.5" as="geometry"/>
                </mxCell>
                <mxCell id="150" value="" style="rounded=1;whiteSpace=wrap;html=1;strokeWidth=2;arcSize=3;shadow=0;" parent="1" vertex="1">
                    <mxGeometry x="317" y="659" width="40" height="40" as="geometry"/>
                </mxCell>
                <mxCell id="151" value="" style="rounded=1;whiteSpace=wrap;html=1;strokeWidth=2;arcSize=3;shadow=0;" parent="1" vertex="1">
                    <mxGeometry x="357" y="659" width="40" height="40" as="geometry"/>
                </mxCell>
                <mxCell id="152" value="" style="rounded=1;whiteSpace=wrap;html=1;strokeWidth=2;arcSize=3;shadow=0;" parent="1" vertex="1">
                    <mxGeometry x="397" y="659" width="40" height="40" as="geometry"/>
                </mxCell>
                <mxCell id="153" value="" style="rounded=1;whiteSpace=wrap;html=1;strokeWidth=2;arcSize=3;shadow=0;" parent="1" vertex="1">
                    <mxGeometry x="437" y="659" width="40" height="40" as="geometry"/>
                </mxCell>
                <mxCell id="160" value="" style="html=1;whiteSpace=wrap;shape=isoCube2;backgroundOutline=1;isoAngle=20.90909090909091;labelBackgroundColor=#FFFFFF;hachureGap=4;fontFamily=Architects Daughter;fontSource=https%3A%2F%2Ffonts.googleapis.com%2Fcss%3Ffamily%3DArchitects%2BDaughter;fontSize=20;rounded=1;shadow=0;strokeWidth=2;" parent="1" vertex="1">
                    <mxGeometry x="322" y="665.25" width="30" height="27.5" as="geometry"/>
                </mxCell>
                <mxCell id="161" value="" style="html=1;whiteSpace=wrap;shape=isoCube2;backgroundOutline=1;isoAngle=20.90909090909091;labelBackgroundColor=#FFFFFF;hachureGap=4;fontFamily=Architects Daughter;fontSource=https%3A%2F%2Ffonts.googleapis.com%2Fcss%3Ffamily%3DArchitects%2BDaughter;fontSize=20;rounded=1;shadow=0;strokeWidth=2;" parent="1" vertex="1">
                    <mxGeometry x="362" y="665.25" width="30" height="27.5" as="geometry"/>
                </mxCell>
                <mxCell id="162" value="" style="html=1;whiteSpace=wrap;shape=isoCube2;backgroundOutline=1;isoAngle=20.90909090909091;labelBackgroundColor=#FFFFFF;hachureGap=4;fontFamily=Architects Daughter;fontSource=https%3A%2F%2Ffonts.googleapis.com%2Fcss%3Ffamily%3DArchitects%2BDaughter;fontSize=20;rounded=1;shadow=0;strokeWidth=2;" parent="1" vertex="1">
                    <mxGeometry x="402" y="665.25" width="30" height="27.5" as="geometry"/>
                </mxCell>
                <mxCell id="163" value="" style="html=1;whiteSpace=wrap;shape=isoCube2;backgroundOutline=1;isoAngle=20.90909090909091;labelBackgroundColor=#FFFFFF;hachureGap=4;fontFamily=Architects Daughter;fontSource=https%3A%2F%2Ffonts.googleapis.com%2Fcss%3Ffamily%3DArchitects%2BDaughter;fontSize=20;rounded=1;shadow=0;strokeWidth=2;" parent="1" vertex="1">
                    <mxGeometry x="442" y="665.25" width="30" height="27.5" as="geometry"/>
                </mxCell>
                <mxCell id="164" style="edgeStyle=none;html=1;strokeWidth=2;fontColor=default;strokeColor=#3333FF;exitX=0.003;exitY=0.876;exitDx=0;exitDy=0;exitPerimeter=0;" parent="1" source="159" edge="1">
                    <mxGeometry relative="1" as="geometry">
                        <mxPoint x="510" y="622" as="targetPoint"/>
                        <mxPoint x="710" y="680" as="sourcePoint"/>
                        <Array as="points">
                            <mxPoint x="620" y="680"/>
                            <mxPoint x="510" y="680"/>
                        </Array>
                    </mxGeometry>
                </mxCell>
                <mxCell id="191" value="(2)" style="edgeLabel;html=1;align=center;verticalAlign=middle;resizable=0;points=[];fontSize=16;fontColor=#3333FF;" parent="164" vertex="1" connectable="0">
                    <mxGeometry x="0.0996" relative="1" as="geometry">
                        <mxPoint as="offset"/>
                    </mxGeometry>
                </mxCell>
                <mxCell id="169" style="edgeStyle=none;html=1;strokeWidth=2;fontColor=default;strokeColor=#3333FF;entryX=0.244;entryY=0.025;entryDx=0;entryDy=0;entryPerimeter=0;exitX=0.113;exitY=0.994;exitDx=0;exitDy=0;exitPerimeter=0;" parent="1" source="128" target="27" edge="1">
                    <mxGeometry relative="1" as="geometry">
                        <mxPoint x="260" y="619" as="targetPoint"/>
                        <mxPoint x="230" y="770" as="sourcePoint"/>
                        <Array as="points"/>
                    </mxGeometry>
                </mxCell>
                <mxCell id="193" value="(3)" style="edgeLabel;html=1;align=center;verticalAlign=middle;resizable=0;points=[];fontSize=16;fontColor=#3333FF;" parent="169" vertex="1" connectable="0">
                    <mxGeometry x="0.3959" relative="1" as="geometry">
                        <mxPoint as="offset"/>
                    </mxGeometry>
                </mxCell>
                <mxCell id="171" style="edgeStyle=none;html=1;strokeWidth=2;fontColor=default;strokeColor=#3333FF;entryX=0.07;entryY=0.994;entryDx=0;entryDy=0;entryPerimeter=0;exitX=0.228;exitY=0.013;exitDx=0;exitDy=0;exitPerimeter=0;" parent="1" source="27" target="128" edge="1">
                    <mxGeometry relative="1" as="geometry">
                        <mxPoint x="208" y="620" as="targetPoint"/>
                        <mxPoint x="246" y="860" as="sourcePoint"/>
                        <Array as="points"/>
                    </mxGeometry>
                </mxCell>
                <mxCell id="194" value="(4)" style="edgeLabel;html=1;align=center;verticalAlign=middle;resizable=0;points=[];fontSize=16;fontColor=#3333FF;" parent="171" vertex="1" connectable="0">
                    <mxGeometry x="0.2838" y="2" relative="1" as="geometry">
                        <mxPoint as="offset"/>
                    </mxGeometry>
                </mxCell>
                <mxCell id="178" value="" style="rounded=1;whiteSpace=wrap;html=1;strokeWidth=2;arcSize=20;shadow=0;fillColor=#fff2cc;strokeColor=#d6b656;" parent="1" vertex="1">
                    <mxGeometry x="260" y="219" width="40" height="40" as="geometry"/>
                </mxCell>
                <mxCell id="179" value="" style="rounded=1;whiteSpace=wrap;html=1;strokeWidth=2;arcSize=20;shadow=0;fillColor=#fff2cc;strokeColor=#d6b656;" parent="1" vertex="1">
                    <mxGeometry x="300" y="219" width="40" height="40" as="geometry"/>
                </mxCell>
                <mxCell id="180" value="" style="rounded=1;whiteSpace=wrap;html=1;strokeWidth=2;arcSize=20;shadow=0;fillColor=#fff2cc;strokeColor=#d6b656;" parent="1" vertex="1">
                    <mxGeometry x="340" y="219" width="40" height="40" as="geometry"/>
                </mxCell>
                <mxCell id="198" style="edgeStyle=none;html=1;exitX=0.5;exitY=1;exitDx=0;exitDy=0;strokeColor=#FF3333;strokeWidth=2;fontSize=16;fontColor=#3333FF;" parent="1" source="181" edge="1">
                    <mxGeometry relative="1" as="geometry">
                        <mxPoint x="400" y="280" as="targetPoint"/>
                    </mxGeometry>
                </mxCell>
                <mxCell id="181" value="" style="rounded=1;whiteSpace=wrap;html=1;strokeWidth=2;arcSize=20;shadow=0;fillColor=#fff2cc;strokeColor=#d6b656;" parent="1" vertex="1">
                    <mxGeometry x="380" y="218" width="40" height="40" as="geometry"/>
                </mxCell>
                <mxCell id="182" value="" style="rounded=1;whiteSpace=wrap;html=1;strokeWidth=2;arcSize=20;shadow=0;fillColor=#fff2cc;strokeColor=#d6b656;" parent="1" vertex="1">
                    <mxGeometry x="420" y="218" width="40" height="40" as="geometry"/>
                </mxCell>
                <mxCell id="183" value="" style="rounded=1;whiteSpace=wrap;html=1;strokeWidth=2;arcSize=20;shadow=0;fillColor=#fff2cc;strokeColor=#d6b656;" parent="1" vertex="1">
                    <mxGeometry x="460" y="218" width="40" height="40" as="geometry"/>
                </mxCell>
                <mxCell id="184" value="" style="rounded=1;whiteSpace=wrap;html=1;strokeWidth=2;arcSize=20;shadow=0;fillColor=#fff2cc;strokeColor=#d6b656;" parent="1" vertex="1">
                    <mxGeometry x="500" y="217" width="40" height="40" as="geometry"/>
                </mxCell>
                <mxCell id="185" value="" style="rounded=1;whiteSpace=wrap;html=1;strokeWidth=2;arcSize=20;shadow=0;fillColor=#fff2cc;strokeColor=#d6b656;" parent="1" vertex="1">
                    <mxGeometry x="540" y="217" width="40" height="40" as="geometry"/>
                </mxCell>
                <mxCell id="199" value="Blocking Read" style="text;html=1;align=center;verticalAlign=middle;resizable=0;points=[];autosize=1;strokeColor=none;fillColor=none;fontSize=16;fontColor=#FF3333;" parent="1" vertex="1">
                    <mxGeometry x="400" y="257" width="130" height="30" as="geometry"/>
                </mxCell>
                <mxCell id="209" value="" style="rounded=1;whiteSpace=wrap;html=1;strokeWidth=2;arcSize=20;shadow=0;fillColor=#fff2cc;strokeColor=#d6b656;" parent="1" vertex="1">
                    <mxGeometry x="580" y="217" width="40" height="40" as="geometry"/>
                </mxCell>
                <mxCell id="247" value="" style="html=1;whiteSpace=wrap;shape=isoCube2;backgroundOutline=1;isoAngle=20.90909090909091;labelBackgroundColor=#FFFFFF;hachureGap=4;fontFamily=Architects Daughter;fontSource=https%3A%2F%2Ffonts.googleapis.com%2Fcss%3Ffamily%3DArchitects%2BDaughter;fontSize=20;rounded=1;shadow=0;strokeWidth=2;" parent="1" vertex="1">
                    <mxGeometry x="107" y="250" width="30" height="27.5" as="geometry"/>
                </mxCell>
                <mxCell id="248" value="" style="html=1;whiteSpace=wrap;shape=isoCube2;backgroundOutline=1;isoAngle=20.90909090909091;labelBackgroundColor=#FFFFFF;hachureGap=4;fontFamily=Architects Daughter;fontSource=https%3A%2F%2Ffonts.googleapis.com%2Fcss%3Ffamily%3DArchitects%2BDaughter;fontSize=20;rounded=1;shadow=0;strokeWidth=2;" parent="1" vertex="1">
                    <mxGeometry x="107" y="406.25" width="30" height="27.5" as="geometry"/>
                </mxCell>
                <mxCell id="249" value="" style="html=1;whiteSpace=wrap;shape=isoCube2;backgroundOutline=1;isoAngle=20.90909090909091;labelBackgroundColor=#FFFFFF;hachureGap=4;fontFamily=Architects Daughter;fontSource=https%3A%2F%2Ffonts.googleapis.com%2Fcss%3Ffamily%3DArchitects%2BDaughter;fontSize=20;rounded=1;shadow=0;strokeWidth=2;" parent="1" vertex="1">
                    <mxGeometry x="107" y="366.25" width="30" height="27.5" as="geometry"/>
                </mxCell>
                <mxCell id="244" value="&lt;pre&gt;&lt;div&gt;&lt;br&gt;&lt;/div&gt;&lt;/pre&gt;" style="rounded=1;whiteSpace=wrap;html=1;strokeWidth=2;arcSize=15;shadow=0;align=left;verticalAlign=top;strokeColor=#82b366;fillColor=#d5e8d4;" parent="1" vertex="1">
                    <mxGeometry x="890" y="550" width="110" height="150" as="geometry"/>
                </mxCell>
                <mxCell id="239" value="" style="html=1;whiteSpace=wrap;shape=isoCube2;backgroundOutline=1;isoAngle=20.90909090909091;labelBackgroundColor=#FFFFFF;hachureGap=4;fontFamily=Architects Daughter;fontSource=https%3A%2F%2Ffonts.googleapis.com%2Fcss%3Ffamily%3DArchitects%2BDaughter;fontSize=20;rounded=1;shadow=0;strokeWidth=2;fillColor=#d5e8d4;strokeColor=#82b366;" parent="1" vertex="1">
                    <mxGeometry x="950" y="564" width="30" height="27.5" as="geometry"/>
                </mxCell>
                <mxCell id="240" value="" style="html=1;whiteSpace=wrap;shape=isoCube2;backgroundOutline=1;isoAngle=20.90909090909091;labelBackgroundColor=#FFFFFF;hachureGap=4;fontFamily=Architects Daughter;fontSource=https%3A%2F%2Ffonts.googleapis.com%2Fcss%3Ffamily%3DArchitects%2BDaughter;fontSize=20;rounded=1;shadow=0;strokeWidth=2;fillColor=#d5e8d4;strokeColor=#82b366;" parent="1" vertex="1">
                    <mxGeometry x="910" y="584" width="30" height="27.5" as="geometry"/>
                </mxCell>
                <mxCell id="241" value="" style="html=1;whiteSpace=wrap;shape=isoCube2;backgroundOutline=1;isoAngle=20.90909090909091;labelBackgroundColor=#FFFFFF;hachureGap=4;fontFamily=Architects Daughter;fontSource=https%3A%2F%2Ffonts.googleapis.com%2Fcss%3Ffamily%3DArchitects%2BDaughter;fontSize=20;rounded=1;shadow=0;strokeWidth=2;fillColor=#d5e8d4;strokeColor=#82b366;" parent="1" vertex="1">
                    <mxGeometry x="950" y="611.5" width="30" height="27.5" as="geometry"/>
                </mxCell>
                <mxCell id="242" value="" style="html=1;whiteSpace=wrap;shape=isoCube2;backgroundOutline=1;isoAngle=20.90909090909091;labelBackgroundColor=#FFFFFF;hachureGap=4;fontFamily=Architects Daughter;fontSource=https%3A%2F%2Ffonts.googleapis.com%2Fcss%3Ffamily%3DArchitects%2BDaughter;fontSize=20;rounded=1;shadow=0;strokeWidth=2;fillColor=#d5e8d4;strokeColor=#82b366;" parent="1" vertex="1">
                    <mxGeometry x="910" y="631" width="30" height="27.5" as="geometry"/>
                </mxCell>
                <mxCell id="243" value="" style="html=1;whiteSpace=wrap;shape=isoCube2;backgroundOutline=1;isoAngle=20.90909090909091;labelBackgroundColor=#FFFFFF;hachureGap=4;fontFamily=Architects Daughter;fontSource=https%3A%2F%2Ffonts.googleapis.com%2Fcss%3Ffamily%3DArchitects%2BDaughter;fontSize=20;rounded=1;shadow=0;strokeWidth=2;fillColor=#d5e8d4;strokeColor=#82b366;" parent="1" vertex="1">
                    <mxGeometry x="950" y="658.5" width="30" height="27.5" as="geometry"/>
                </mxCell>
                <mxCell id="258" style="edgeStyle=none;rounded=1;hachureGap=4;html=1;exitX=1;exitY=0.5;exitDx=0;exitDy=0;entryX=0;entryY=0.5;entryDx=0;entryDy=0;shadow=1;strokeWidth=2;fontFamily=Helvetica;fontSize=22;fontColor=#d80e0e;" parent="1" source="259" edge="1">
                    <mxGeometry relative="1" as="geometry">
                        <mxPoint x="102" y="619" as="targetPoint"/>
                    </mxGeometry>
                </mxCell>
                <mxCell id="259" value="APP&lt;br&gt;10" style="rounded=1;whiteSpace=wrap;html=1;labelBackgroundColor=none;shadow=0;strokeWidth=2;" parent="1" vertex="1">
                    <mxGeometry x="36" y="599" width="40" height="40" as="geometry"/>
                </mxCell>
                <mxCell id="260" value="" style="rounded=1;whiteSpace=wrap;html=1;strokeWidth=2;arcSize=3;shadow=0;" parent="1" vertex="1">
                    <mxGeometry x="102" y="599" width="40" height="40" as="geometry"/>
                </mxCell>
                <mxCell id="261" value="" style="rounded=1;whiteSpace=wrap;html=1;strokeWidth=2;arcSize=3;shadow=0;" parent="1" vertex="1">
                    <mxGeometry x="142" y="599" width="40" height="40" as="geometry"/>
                </mxCell>
                <mxCell id="262" value="" style="html=1;whiteSpace=wrap;shape=isoCube2;backgroundOutline=1;isoAngle=20.90909090909091;labelBackgroundColor=#FFFFFF;hachureGap=4;fontFamily=Architects Daughter;fontSource=https%3A%2F%2Ffonts.googleapis.com%2Fcss%3Ffamily%3DArchitects%2BDaughter;fontSize=20;rounded=1;shadow=0;strokeWidth=2;" parent="1" vertex="1">
                    <mxGeometry x="107" y="526.25" width="30" height="27.5" as="geometry"/>
                </mxCell>
                <mxCell id="263" value="APP&lt;br&gt;10" style="rounded=1;whiteSpace=wrap;html=1;labelBackgroundColor=none;shadow=0;strokeWidth=2;" parent="1" vertex="1">
                    <mxGeometry x="880" y="29.5" width="40" height="40" as="geometry"/>
                </mxCell>
                <mxCell id="265" style="edgeStyle=none;html=1;strokeColor=#FF3333;strokeWidth=2;fontSize=16;fontColor=#0000FF;exitX=1;exitY=0.5;exitDx=0;exitDy=0;entryX=1;entryY=0.5;entryDx=0;entryDy=0;" parent="1" source="267" target="12" edge="1">
                    <mxGeometry relative="1" as="geometry">
                        <mxPoint x="1010" y="89" as="sourcePoint"/>
                        <mxPoint x="1010" y="180" as="targetPoint"/>
                        <Array as="points">
                            <mxPoint x="1140" y="385"/>
                            <mxPoint x="1140" y="50"/>
                        </Array>
                    </mxGeometry>
                </mxCell>
                <mxCell id="266" value="Application Retrieves PD&lt;br&gt;+&lt;br&gt;Loads data into PD" style="edgeLabel;html=1;align=center;verticalAlign=middle;resizable=0;points=[];fontSize=16;fontColor=#FF3333;" parent="265" vertex="1" connectable="0">
                    <mxGeometry x="0.3535" y="1" relative="1" as="geometry">
                        <mxPoint x="1" y="-9" as="offset"/>
                    </mxGeometry>
                </mxCell>
                <mxCell id="210" value="" style="html=1;whiteSpace=wrap;shape=isoCube2;backgroundOutline=1;isoAngle=20.90909090909091;labelBackgroundColor=#FFFFFF;hachureGap=4;fontFamily=Architects Daughter;fontSource=https%3A%2F%2Ffonts.googleapis.com%2Fcss%3Ffamily%3DArchitects%2BDaughter;fontSize=20;rounded=1;shadow=0;strokeWidth=2;" parent="1" vertex="1">
                    <mxGeometry x="795" y="266.25" width="30" height="27.5" as="geometry"/>
                </mxCell>
                <mxCell id="211" value="" style="html=1;whiteSpace=wrap;shape=isoCube2;backgroundOutline=1;isoAngle=20.90909090909091;labelBackgroundColor=#FFFFFF;hachureGap=4;fontFamily=Architects Daughter;fontSource=https%3A%2F%2Ffonts.googleapis.com%2Fcss%3Ffamily%3DArchitects%2BDaughter;fontSize=20;rounded=1;shadow=0;strokeWidth=2;" parent="1" vertex="1">
                    <mxGeometry x="835" y="293.75" width="30" height="27.5" as="geometry"/>
                </mxCell>
                <mxCell id="212" value="" style="html=1;whiteSpace=wrap;shape=isoCube2;backgroundOutline=1;isoAngle=20.90909090909091;labelBackgroundColor=#FFFFFF;hachureGap=4;fontFamily=Architects Daughter;fontSource=https%3A%2F%2Ffonts.googleapis.com%2Fcss%3Ffamily%3DArchitects%2BDaughter;fontSize=20;rounded=1;shadow=0;strokeWidth=2;" parent="1" vertex="1">
                    <mxGeometry x="795" y="311.25" width="30" height="27.5" as="geometry"/>
                </mxCell>
                <mxCell id="213" value="" style="html=1;whiteSpace=wrap;shape=isoCube2;backgroundOutline=1;isoAngle=20.90909090909091;labelBackgroundColor=#FFFFFF;hachureGap=4;fontFamily=Architects Daughter;fontSource=https%3A%2F%2Ffonts.googleapis.com%2Fcss%3Ffamily%3DArchitects%2BDaughter;fontSize=20;rounded=1;shadow=0;strokeWidth=2;" parent="1" vertex="1">
                    <mxGeometry x="835" y="338.75" width="30" height="27.5" as="geometry"/>
                </mxCell>
                <mxCell id="214" value="" style="html=1;whiteSpace=wrap;shape=isoCube2;backgroundOutline=1;isoAngle=20.90909090909091;labelBackgroundColor=#FFFFFF;hachureGap=4;fontFamily=Architects Daughter;fontSource=https%3A%2F%2Ffonts.googleapis.com%2Fcss%3Ffamily%3DArchitects%2BDaughter;fontSize=20;rounded=1;shadow=0;strokeWidth=2;" parent="1" vertex="1">
                    <mxGeometry x="795" y="358.75" width="30" height="27.5" as="geometry"/>
                </mxCell>
                <mxCell id="215" value="" style="html=1;whiteSpace=wrap;shape=isoCube2;backgroundOutline=1;isoAngle=20.90909090909091;labelBackgroundColor=#FFFFFF;hachureGap=4;fontFamily=Architects Daughter;fontSource=https%3A%2F%2Ffonts.googleapis.com%2Fcss%3Ffamily%3DArchitects%2BDaughter;fontSize=20;rounded=1;shadow=0;strokeWidth=2;" parent="1" vertex="1">
                    <mxGeometry x="835" y="386.25" width="30" height="27.5" as="geometry"/>
                </mxCell>
                <mxCell id="216" value="" style="html=1;whiteSpace=wrap;shape=isoCube2;backgroundOutline=1;isoAngle=20.90909090909091;labelBackgroundColor=#FFFFFF;hachureGap=4;fontFamily=Architects Daughter;fontSource=https%3A%2F%2Ffonts.googleapis.com%2Fcss%3Ffamily%3DArchitects%2BDaughter;fontSize=20;rounded=1;shadow=0;strokeWidth=2;" parent="1" vertex="1">
                    <mxGeometry x="795" y="405.75" width="30" height="27.5" as="geometry"/>
                </mxCell>
                <mxCell id="217" value="" style="html=1;whiteSpace=wrap;shape=isoCube2;backgroundOutline=1;isoAngle=20.90909090909091;labelBackgroundColor=#FFFFFF;hachureGap=4;fontFamily=Architects Daughter;fontSource=https%3A%2F%2Ffonts.googleapis.com%2Fcss%3Ffamily%3DArchitects%2BDaughter;fontSize=20;rounded=1;shadow=0;strokeWidth=2;" parent="1" vertex="1">
                    <mxGeometry x="835" y="433.25" width="30" height="27.5" as="geometry"/>
                </mxCell>
                <mxCell id="220" value="" style="html=1;whiteSpace=wrap;shape=isoCube2;backgroundOutline=1;isoAngle=20.90909090909091;labelBackgroundColor=#FFFFFF;hachureGap=4;fontFamily=Architects Daughter;fontSource=https%3A%2F%2Ffonts.googleapis.com%2Fcss%3Ffamily%3DArchitects%2BDaughter;fontSize=20;rounded=1;shadow=0;strokeWidth=2;" parent="1" vertex="1">
                    <mxGeometry x="885" y="278.75" width="30" height="27.5" as="geometry"/>
                </mxCell>
                <mxCell id="222" value="" style="html=1;whiteSpace=wrap;shape=isoCube2;backgroundOutline=1;isoAngle=20.90909090909091;labelBackgroundColor=#FFFFFF;hachureGap=4;fontFamily=Architects Daughter;fontSource=https%3A%2F%2Ffonts.googleapis.com%2Fcss%3Ffamily%3DArchitects%2BDaughter;fontSize=20;rounded=1;shadow=0;strokeWidth=2;" parent="1" vertex="1">
                    <mxGeometry x="885" y="323.75" width="30" height="27.5" as="geometry"/>
                </mxCell>
                <mxCell id="223" value="" style="html=1;whiteSpace=wrap;shape=isoCube2;backgroundOutline=1;isoAngle=20.90909090909091;labelBackgroundColor=#FFFFFF;hachureGap=4;fontFamily=Architects Daughter;fontSource=https%3A%2F%2Ffonts.googleapis.com%2Fcss%3Ffamily%3DArchitects%2BDaughter;fontSize=20;rounded=1;shadow=0;strokeWidth=2;" parent="1" vertex="1">
                    <mxGeometry x="925" y="351.25" width="30" height="27.5" as="geometry"/>
                </mxCell>
                <mxCell id="224" value="" style="html=1;whiteSpace=wrap;shape=isoCube2;backgroundOutline=1;isoAngle=20.90909090909091;labelBackgroundColor=#FFFFFF;hachureGap=4;fontFamily=Architects Daughter;fontSource=https%3A%2F%2Ffonts.googleapis.com%2Fcss%3Ffamily%3DArchitects%2BDaughter;fontSize=20;rounded=1;shadow=0;strokeWidth=2;" parent="1" vertex="1">
                    <mxGeometry x="885" y="371.25" width="30" height="27.5" as="geometry"/>
                </mxCell>
                <mxCell id="225" value="" style="html=1;whiteSpace=wrap;shape=isoCube2;backgroundOutline=1;isoAngle=20.90909090909091;labelBackgroundColor=#FFFFFF;hachureGap=4;fontFamily=Architects Daughter;fontSource=https%3A%2F%2Ffonts.googleapis.com%2Fcss%3Ffamily%3DArchitects%2BDaughter;fontSize=20;rounded=1;shadow=0;strokeWidth=2;" parent="1" vertex="1">
                    <mxGeometry x="925" y="398.75" width="30" height="27.5" as="geometry"/>
                </mxCell>
                <mxCell id="226" value="" style="html=1;whiteSpace=wrap;shape=isoCube2;backgroundOutline=1;isoAngle=20.90909090909091;labelBackgroundColor=#FFFFFF;hachureGap=4;fontFamily=Architects Daughter;fontSource=https%3A%2F%2Ffonts.googleapis.com%2Fcss%3Ffamily%3DArchitects%2BDaughter;fontSize=20;rounded=1;shadow=0;strokeWidth=2;" parent="1" vertex="1">
                    <mxGeometry x="885" y="418.25" width="30" height="27.5" as="geometry"/>
                </mxCell>
                <mxCell id="227" value="" style="html=1;whiteSpace=wrap;shape=isoCube2;backgroundOutline=1;isoAngle=20.90909090909091;labelBackgroundColor=#FFFFFF;hachureGap=4;fontFamily=Architects Daughter;fontSource=https%3A%2F%2Ffonts.googleapis.com%2Fcss%3Ffamily%3DArchitects%2BDaughter;fontSize=20;rounded=1;shadow=0;strokeWidth=2;" parent="1" vertex="1">
                    <mxGeometry x="925" y="445.75" width="30" height="27.5" as="geometry"/>
                </mxCell>
                <mxCell id="228" value="" style="html=1;whiteSpace=wrap;shape=isoCube2;backgroundOutline=1;isoAngle=20.90909090909091;labelBackgroundColor=#FFFFFF;hachureGap=4;fontFamily=Architects Daughter;fontSource=https%3A%2F%2Ffonts.googleapis.com%2Fcss%3Ffamily%3DArchitects%2BDaughter;fontSize=20;rounded=1;shadow=0;strokeWidth=2;" parent="1" vertex="1">
                    <mxGeometry x="795" y="463.25" width="30" height="27.5" as="geometry"/>
                </mxCell>
                <mxCell id="229" value="" style="html=1;whiteSpace=wrap;shape=isoCube2;backgroundOutline=1;isoAngle=20.90909090909091;labelBackgroundColor=#FFFFFF;hachureGap=4;fontFamily=Architects Daughter;fontSource=https%3A%2F%2Ffonts.googleapis.com%2Fcss%3Ffamily%3DArchitects%2BDaughter;fontSize=20;rounded=1;shadow=0;strokeWidth=2;" parent="1" vertex="1">
                    <mxGeometry x="835" y="490.75" width="30" height="27.5" as="geometry"/>
                </mxCell>
                <mxCell id="230" value="" style="html=1;whiteSpace=wrap;shape=isoCube2;backgroundOutline=1;isoAngle=20.90909090909091;labelBackgroundColor=#FFFFFF;hachureGap=4;fontFamily=Architects Daughter;fontSource=https%3A%2F%2Ffonts.googleapis.com%2Fcss%3Ffamily%3DArchitects%2BDaughter;fontSize=20;rounded=1;shadow=0;strokeWidth=2;" parent="1" vertex="1">
                    <mxGeometry x="795" y="508.25" width="30" height="27.5" as="geometry"/>
                </mxCell>
                <mxCell id="231" value="" style="html=1;whiteSpace=wrap;shape=isoCube2;backgroundOutline=1;isoAngle=20.90909090909091;labelBackgroundColor=#FFFFFF;hachureGap=4;fontFamily=Architects Daughter;fontSource=https%3A%2F%2Ffonts.googleapis.com%2Fcss%3Ffamily%3DArchitects%2BDaughter;fontSize=20;rounded=1;shadow=0;strokeWidth=2;" parent="1" vertex="1">
                    <mxGeometry x="835" y="535.75" width="30" height="27.5" as="geometry"/>
                </mxCell>
                <mxCell id="232" value="" style="html=1;whiteSpace=wrap;shape=isoCube2;backgroundOutline=1;isoAngle=20.90909090909091;labelBackgroundColor=#FFFFFF;hachureGap=4;fontFamily=Architects Daughter;fontSource=https%3A%2F%2Ffonts.googleapis.com%2Fcss%3Ffamily%3DArchitects%2BDaughter;fontSize=20;rounded=1;shadow=0;strokeWidth=2;" parent="1" vertex="1">
                    <mxGeometry x="795" y="555.75" width="30" height="27.5" as="geometry"/>
                </mxCell>
                <mxCell id="233" value="" style="html=1;whiteSpace=wrap;shape=isoCube2;backgroundOutline=1;isoAngle=20.90909090909091;labelBackgroundColor=#FFFFFF;hachureGap=4;fontFamily=Architects Daughter;fontSource=https%3A%2F%2Ffonts.googleapis.com%2Fcss%3Ffamily%3DArchitects%2BDaughter;fontSize=20;rounded=1;shadow=0;strokeWidth=2;" parent="1" vertex="1">
                    <mxGeometry x="835" y="583.25" width="30" height="27.5" as="geometry"/>
                </mxCell>
                <mxCell id="234" value="" style="html=1;whiteSpace=wrap;shape=isoCube2;backgroundOutline=1;isoAngle=20.90909090909091;labelBackgroundColor=#FFFFFF;hachureGap=4;fontFamily=Architects Daughter;fontSource=https%3A%2F%2Ffonts.googleapis.com%2Fcss%3Ffamily%3DArchitects%2BDaughter;fontSize=20;rounded=1;shadow=0;strokeWidth=2;" parent="1" vertex="1">
                    <mxGeometry x="795" y="602.75" width="30" height="27.5" as="geometry"/>
                </mxCell>
                <mxCell id="267" value="&lt;pre&gt;&lt;div&gt;&lt;br&gt;&lt;/div&gt;&lt;/pre&gt;" style="rounded=1;whiteSpace=wrap;html=1;strokeWidth=2;arcSize=15;shadow=0;align=left;verticalAlign=top;strokeColor=#b85450;fillColor=#f8cecc;" parent="1" vertex="1">
                    <mxGeometry x="990" y="354" width="60" height="62" as="geometry"/>
                </mxCell>
                <mxCell id="235" value="" style="html=1;whiteSpace=wrap;shape=isoCube2;backgroundOutline=1;isoAngle=20.90909090909091;labelBackgroundColor=#FFFFFF;hachureGap=4;fontFamily=Architects Daughter;fontSource=https%3A%2F%2Ffonts.googleapis.com%2Fcss%3Ffamily%3DArchitects%2BDaughter;fontSize=20;rounded=1;shadow=0;strokeWidth=2;" parent="1" vertex="1">
                    <mxGeometry x="835" y="630.25" width="30" height="27.5" as="geometry"/>
                </mxCell>
                <mxCell id="236" value="" style="html=1;whiteSpace=wrap;shape=isoCube2;backgroundOutline=1;isoAngle=20.90909090909091;labelBackgroundColor=#FFFFFF;hachureGap=4;fontFamily=Architects Daughter;fontSource=https%3A%2F%2Ffonts.googleapis.com%2Fcss%3Ffamily%3DArchitects%2BDaughter;fontSize=20;rounded=1;shadow=0;strokeWidth=2;" parent="1" vertex="1">
                    <mxGeometry x="885" y="463.25" width="30" height="27.5" as="geometry"/>
                </mxCell>
                <mxCell id="238" value="" style="html=1;whiteSpace=wrap;shape=isoCube2;backgroundOutline=1;isoAngle=20.90909090909091;labelBackgroundColor=#FFFFFF;hachureGap=4;fontFamily=Architects Daughter;fontSource=https%3A%2F%2Ffonts.googleapis.com%2Fcss%3Ffamily%3DArchitects%2BDaughter;fontSize=20;rounded=1;shadow=0;strokeWidth=2;" parent="1" vertex="1">
                    <mxGeometry x="885" y="508.25" width="30" height="27.5" as="geometry"/>
                </mxCell>
                <mxCell id="221" value="" style="html=1;whiteSpace=wrap;shape=isoCube2;backgroundOutline=1;isoAngle=20.90909090909091;labelBackgroundColor=#FFFFFF;hachureGap=4;fontFamily=Architects Daughter;fontSource=https%3A%2F%2Ffonts.googleapis.com%2Fcss%3Ffamily%3DArchitects%2BDaughter;fontSize=20;rounded=1;shadow=0;strokeWidth=2;fillColor=#f8cecc;strokeColor=#b85450;" parent="1" vertex="1">
                    <mxGeometry x="1005" y="371.25" width="30" height="27.5" as="geometry"/>
                </mxCell>
                <mxCell id="270" value="Returns PD to store &lt;br&gt;after APP is done" style="edgeLabel;html=1;align=center;verticalAlign=middle;resizable=0;points=[];fontSize=16;fontColor=#9933FF;" parent="1" vertex="1" connectable="0">
                    <mxGeometry x="1259.9954584114723" y="286.99592314188305" as="geometry"/>
                </mxCell>
                <mxCell id="271" value="&lt;pre&gt;&lt;div&gt;&lt;br&gt;&lt;/div&gt;&lt;/pre&gt;" style="rounded=1;whiteSpace=wrap;html=1;strokeWidth=2;arcSize=15;shadow=0;align=left;verticalAlign=top;strokeColor=#9673a6;fillColor=#e1d5e7;" parent="1" vertex="1">
                    <mxGeometry x="990" y="434.5" width="60" height="62" as="geometry"/>
                </mxCell>
                <mxCell id="272" value="" style="html=1;whiteSpace=wrap;shape=isoCube2;backgroundOutline=1;isoAngle=20.90909090909091;labelBackgroundColor=#FFFFFF;hachureGap=4;fontFamily=Architects Daughter;fontSource=https%3A%2F%2Ffonts.googleapis.com%2Fcss%3Ffamily%3DArchitects%2BDaughter;fontSize=20;rounded=1;shadow=0;strokeWidth=2;fillColor=#e1d5e7;strokeColor=#9673a6;" parent="1" vertex="1">
                    <mxGeometry x="1005" y="451.75" width="30" height="27.5" as="geometry"/>
                </mxCell>
            </root>
        </mxGraphModel>
    </diagram>
</mxfile>